<?xml version="1.0" encoding="utf-8"?>
<!-- Generator: Adobe Illustrator 27.9.6, SVG Export Plug-In . SVG Version: 9.03 Build 54986)  -->
<svg version="1.1" id="Layer_1" xmlns="http://www.w3.org/2000/svg" xmlns:xlink="http://www.w3.org/1999/xlink" x="0px" y="0px"
	 viewBox="0 0 130.467 32.811" style="enable-background:new 0 0 130.467 32.811;" xml:space="preserve">
<style type="text/css">
	.st0{fill:#FFFFFF;}
	.st1{fill:#343434;}
	.st2{fill-rule:evenodd;clip-rule:evenodd;fill:#FECF03;}
	.st3{fill-rule:evenodd;clip-rule:evenodd;fill:#FF0164;}
	.st4{fill-rule:evenodd;clip-rule:evenodd;fill:#5665FC;}
	.st5{fill-rule:evenodd;clip-rule:evenodd;fill:#33D09B;}
</style>
<path class="st0" d="M124.852,32.811H5.615C2.514,32.811,0,30.297,0,27.196V5.615C0,2.514,2.514,0,5.615,0h119.237
	c3.101,0,5.615,2.514,5.615,5.615v21.581C130.467,30.297,127.953,32.811,124.852,32.811z"/>
<g>
	<path class="st1" d="M42.429,9.481V5.267h1.825c0.377,0,0.702,0.061,0.975,0.184c0.273,0.123,0.484,0.298,0.632,0.527
		c0.149,0.229,0.223,0.5,0.223,0.813c0,0.317-0.074,0.589-0.223,0.816c-0.148,0.227-0.359,0.402-0.632,0.527
		c-0.273,0.124-0.598,0.187-0.975,0.187h-1.288l0.445-0.44v1.602H42.429z M43.411,7.988l-0.445-0.464H44.2
		c0.297,0,0.522-0.064,0.674-0.193c0.152-0.128,0.229-0.309,0.229-0.542c0-0.233-0.077-0.413-0.229-0.539
		c-0.152-0.127-0.377-0.19-0.674-0.19h-1.234l0.445-0.464V7.988z"/>
	<path class="st1" d="M50.088,9.554c-0.333,0-0.64-0.054-0.921-0.163c-0.281-0.108-0.526-0.261-0.735-0.458
		c-0.208-0.197-0.37-0.427-0.484-0.692c-0.114-0.265-0.172-0.554-0.172-0.867c0-0.317,0.057-0.607,0.172-0.87
		c0.114-0.263,0.276-0.493,0.484-0.689c0.209-0.197,0.453-0.349,0.732-0.458c0.279-0.108,0.585-0.163,0.918-0.163
		c0.333,0,0.639,0.053,0.918,0.159c0.279,0.107,0.523,0.258,0.731,0.455c0.208,0.197,0.37,0.428,0.484,0.692
		c0.114,0.265,0.172,0.556,0.172,0.873c0,0.313-0.057,0.603-0.172,0.87c-0.114,0.267-0.276,0.499-0.484,0.695
		C51.523,9.136,51.279,9.288,51,9.394C50.721,9.5,50.417,9.554,50.088,9.554z M50.082,8.729c0.189,0,0.362-0.033,0.521-0.099
		c0.159-0.066,0.298-0.161,0.418-0.283c0.12-0.122,0.214-0.265,0.28-0.427c0.066-0.163,0.099-0.344,0.099-0.545
		c0-0.201-0.033-0.382-0.099-0.545c-0.066-0.163-0.16-0.305-0.28-0.427c-0.12-0.123-0.26-0.217-0.418-0.283
		c-0.159-0.066-0.332-0.099-0.521-0.099c-0.189,0-0.364,0.033-0.524,0.099c-0.16,0.066-0.3,0.161-0.419,0.283
		c-0.118,0.122-0.211,0.265-0.277,0.427c-0.066,0.163-0.1,0.344-0.1,0.545c0,0.201,0.033,0.382,0.1,0.545
		c0.066,0.163,0.159,0.305,0.277,0.427c0.119,0.123,0.258,0.217,0.419,0.283C49.719,8.696,49.893,8.729,50.082,8.729z"/>
	<path class="st1" d="M55.206,9.481l-1.385-4.215h1.011L56.03,9h-0.506l1.252-3.733h0.903L58.884,9h-0.487l1.228-3.733h0.933
		l-1.385,4.215h-1.036l-1.072-3.275h0.277l-1.096,3.275H55.206z"/>
	<path class="st1" d="M63.274,8.699h2.294v0.783h-3.264V5.267h3.185v0.783h-2.216V8.699z M63.202,6.959h2.029v0.765h-2.029V6.959z"
		/>
	<path class="st1" d="M67.549,9.481V5.267h1.825c0.377,0,0.702,0.061,0.975,0.184c0.273,0.123,0.484,0.298,0.632,0.527
		c0.149,0.229,0.223,0.5,0.223,0.813c0,0.317-0.074,0.589-0.223,0.816c-0.148,0.227-0.359,0.399-0.632,0.518
		c-0.273,0.119-0.598,0.178-0.975,0.178h-1.288L68.53,7.88v1.602H67.549z M68.53,7.988l-0.445-0.464h1.234
		c0.297,0,0.522-0.064,0.674-0.193c0.152-0.128,0.229-0.309,0.229-0.542c0-0.233-0.077-0.413-0.229-0.539
		c-0.152-0.127-0.377-0.19-0.674-0.19h-1.234l0.445-0.464V7.988z M70.234,9.481l-1.06-1.529h1.048l1.059,1.529H70.234z"/>
	<path class="st1" d="M74.148,8.699h2.294v0.783h-3.264V5.267h3.185v0.783h-2.216V8.699z M74.076,6.959h2.029v0.765h-2.029V6.959z"
		/>
	<path class="st1" d="M78.422,9.481V5.267h1.915c0.458,0,0.861,0.087,1.21,0.262c0.349,0.175,0.622,0.419,0.818,0.735
		c0.197,0.315,0.295,0.685,0.295,1.111c0,0.425-0.099,0.796-0.295,1.111c-0.197,0.315-0.469,0.56-0.818,0.735
		c-0.349,0.175-0.753,0.262-1.21,0.262H78.422z M79.404,8.687h0.885c0.281,0,0.525-0.053,0.732-0.16
		c0.207-0.106,0.367-0.259,0.482-0.457c0.114-0.199,0.171-0.431,0.171-0.695c0-0.269-0.057-0.502-0.171-0.699
		c-0.115-0.197-0.275-0.348-0.482-0.454c-0.207-0.106-0.451-0.16-0.732-0.16h-0.885V8.687z"/>
	<path class="st1" d="M87.508,9.481V5.267h2.059c0.53,0,0.928,0.1,1.195,0.301c0.267,0.201,0.4,0.466,0.4,0.795
		c0,0.221-0.054,0.413-0.163,0.575c-0.108,0.163-0.258,0.288-0.448,0.376c-0.191,0.088-0.406,0.132-0.647,0.132l0.114-0.253
		c0.265,0,0.499,0.044,0.701,0.132c0.203,0.088,0.362,0.217,0.479,0.385c0.116,0.168,0.175,0.375,0.175,0.62
		c0,0.361-0.143,0.643-0.428,0.846c-0.285,0.203-0.704,0.304-1.258,0.304H87.508z M88.477,8.747h1.144
		c0.249,0,0.44-0.042,0.572-0.127c0.133-0.084,0.199-0.215,0.199-0.391c0-0.181-0.066-0.313-0.199-0.397
		c-0.132-0.084-0.323-0.127-0.572-0.127h-1.216V6.995h1.041c0.237,0,0.419-0.041,0.545-0.123c0.127-0.082,0.19-0.208,0.19-0.376
		c0-0.168-0.063-0.293-0.19-0.373c-0.126-0.08-0.308-0.12-0.545-0.12h-0.969V8.747z"/>
	<path class="st1" d="M94.276,9.481V7.759l0.222,0.59l-1.86-3.083h1.041l1.421,2.36h-0.596l1.427-2.36h0.951l-1.849,3.083
		l0.223-0.59v1.722H94.276z"/>
</g>
<g>
	<path class="st1" d="M70.553,17.692h-2.851v3.825c0,1.082,0.877,1.959,1.959,1.959h0.892v1.862H69.66
		c-2.11,0-3.821-1.711-3.821-3.821v-8.14h1.862v2.453h2.851V17.692z"/>
	<path class="st1" d="M58.737,22.255v0.181c0,0.465,0.731,1.395,2.072,1.395c1.44,0,2.072-0.815,2.072-1.395
		c0-0.708-2.831-0.926-3.374-1.045c-1.339-0.293-2.633-0.951-2.633-2.583c0-2.073,2.019-3.258,3.935-3.258
		c1.811,0,3.935,1.381,3.935,3.258v0.181h-1.862v-0.181c0-0.443-0.831-1.395-2.072-1.395c-1.391,0-2.072,0.79-2.072,1.395
		c0,0.845,2.747,1.012,3.363,1.139c1.306,0.269,2.644,0.874,2.644,2.489c0,1.999-1.906,3.258-3.935,3.258
		c-1.966,0-3.935-1.402-3.935-3.258v-0.181H58.737z"/>
	<rect x="122.212" y="15.796" class="st1" width="3.042" height="9.588"/>
	<path class="st1" d="M123.796,11.572c-0.885,0-1.585,0.72-1.585,1.585c0,0.885,0.7,1.615,1.585,1.615
		c0.864,0,1.585-0.73,1.585-1.615C125.38,12.292,124.66,11.572,123.796,11.572L123.796,11.572z"/>
	<path class="st1" d="M107.252,21.542c-1.076,0-1.927,0.876-1.927,1.927c0,1.076,0.851,1.965,1.927,1.965
		c1.051,0,1.927-0.889,1.927-1.965C109.18,22.418,108.303,21.542,107.252,21.542L107.252,21.542z"/>
	<path class="st1" d="M78.407,16.65c-0.688-0.562-1.525-0.875-2.45-0.875H75.52c-2.362,0-4.287,2.162-4.287,4.799
		c0,2.65,1.925,4.775,4.287,4.775h0.438c0.925,0,1.762-0.325,2.45-0.838v0.838h3.037v-9.574h-3.037V16.65z M74.357,20.3
		c0-1,0.875-1.887,1.925-1.887c1,0,1.875,0.887,1.875,1.887v0.512c0,1.05-0.875,1.887-1.875,1.887c-1.05,0-1.925-0.837-1.925-1.887
		V20.3z"/>
	<path class="st1" d="M117.454,16.65c-0.688-0.562-1.525-0.875-2.45-0.875h-0.438c-2.362,0-4.287,2.162-4.287,4.799
		c0,2.65,1.925,4.775,4.287,4.775h0.438c0.925,0,1.762-0.325,2.45-0.838v0.838h3.037v-9.574h-3.037V16.65z M113.404,20.3
		c0-1,0.875-1.887,1.925-1.887c1,0,1.875,0.887,1.875,1.887v0.512c0,1.05-0.875,1.887-1.875,1.887c-1.05,0-1.925-0.837-1.925-1.887
		V20.3z"/>
	<path class="st1" d="M85.957,24.512c0.725,0.512,1.562,0.838,2.437,0.838h0.487c2.362,0,4.287-2.125,4.287-4.775
		c0-2.637-1.925-4.799-4.287-4.799h-0.487c-0.875,0-1.712,0.313-2.437,0.875v-0.875h-3.049v14.098h3.049V24.512z M90.006,20.812
		c0,1.05-0.85,1.887-1.887,1.887c-1.038,0-1.888-0.837-1.888-1.887V20.3c0-1,0.85-1.887,1.888-1.887
		c1.037,0,1.887,0.887,1.887,1.887V20.812z"/>
	<path class="st1" d="M97.462,24.512c0.725,0.512,1.562,0.838,2.437,0.838h0.487c2.362,0,4.287-2.125,4.287-4.775
		c0-2.637-1.925-4.799-4.287-4.799H99.9c-0.875,0-1.712,0.313-2.437,0.875v-0.875h-3.049v14.098h3.049V24.512z M101.512,20.812
		c0,1.05-0.85,1.887-1.887,1.887c-1.038,0-1.888-0.837-1.888-1.887V20.3c0-1,0.85-1.887,1.888-1.887
		c1.037,0,1.887,0.887,1.887,1.887V20.812z"/>
	<g>
		<path class="st1" d="M44.446,22.877v-9.531h-1.855v9.648c0,0.503,0.064,0.907,0.191,1.214c0.127,0.307,0.312,0.544,0.555,0.712
			c0.242,0.179,0.533,0.299,0.873,0.36c0.339,0.061,0.721,0.092,1.146,0.092v-1.608c-0.352-0.033-0.591-0.109-0.718-0.226
			C44.509,23.422,44.446,23.201,44.446,22.877z"/>
		<path class="st1" d="M50.615,15.799c-2.626,0-4.754,2.129-4.754,4.754c0,2.626,2.128,4.754,4.754,4.754v0.006h1.771v-1.869h-1.771
			c-1.597,0-2.892-1.295-2.892-2.892c0-1.597,1.295-2.892,2.892-2.892c1.597,0,2.892,1.295,2.892,2.892v3.774v0.986h1.862v-4.76
			C55.369,17.927,53.241,15.799,50.615,15.799z"/>
	</g>
</g>
<g>
	<path class="st2" d="M32.137,6.808c0.179,0.179,0.29,0.427,0.29,0.701v6.683c0,0.841,0.341,1.604,0.893,2.155
		c0.552,0.552,1.314,0.893,2.155,0.893h1.102v-1.029v-1.029h-1.102c-0.274,0-0.522-0.111-0.701-0.29
		c-0.179-0.179-0.29-0.427-0.29-0.701V7.508c0-0.841-0.341-1.604-0.893-2.155c-0.551-0.552-1.314-0.893-2.155-0.893h-1.425v1.029
		v1.029h1.425C31.711,6.517,31.958,6.628,32.137,6.808"/>
	<path class="st3" d="M32.137,25.614c0.179-0.179,0.29-0.427,0.29-0.701V18.23c0-0.841,0.341-1.604,0.893-2.155
		c0.552-0.551,1.314-0.893,2.155-0.893h1.102v1.029v1.029h-1.102c-0.274,0-0.522,0.111-0.701,0.29
		c-0.179,0.179-0.29,0.427-0.29,0.701v6.683c0,0.841-0.341,1.604-0.893,2.155c-0.551,0.552-1.314,0.893-2.155,0.893h-1.425v-1.029
		v-1.029h1.425C31.711,25.904,31.958,25.793,32.137,25.614"/>
	<path class="st4" d="M11.98,25.614c-0.179-0.179-0.29-0.427-0.29-0.701V18.23c0-0.841-0.341-1.604-0.893-2.155
		c-0.552-0.551-1.314-0.893-2.155-0.893H7.539l0,1.029h0v1.029h1.102c0.274,0,0.522,0.111,0.701,0.29
		c0.179,0.179,0.29,0.427,0.29,0.701v6.683c0,0.841,0.341,1.604,0.893,2.155c0.551,0.552,1.314,0.893,2.155,0.893h1.425v-1.029
		v-1.029h-1.425C12.407,25.904,12.159,25.793,11.98,25.614"/>
	<path class="st5" d="M11.98,6.808c-0.179,0.179-0.29,0.427-0.29,0.701v6.683c0,0.841-0.341,1.604-0.893,2.155
		c-0.552,0.552-1.314,0.893-2.155,0.893H7.539l0-1.029h0v-1.029h1.102c0.274,0,0.522-0.111,0.701-0.29
		c0.179-0.179,0.29-0.427,0.29-0.701V7.508c0-0.841,0.341-1.604,0.893-2.155c0.551-0.552,1.314-0.893,2.155-0.893h1.425v1.029v1.029
		h-1.425C12.407,6.517,12.159,6.628,11.98,6.808"/>
	<path class="st1" d="M22.841,21.56c-0.15-0.15-0.225-0.432-0.225-0.847v-12.2h-2.187v12.35c0,0.643,0.075,1.161,0.225,1.554
		c0.15,0.393,0.368,0.697,0.654,0.911c0.286,0.229,0.629,0.382,1.029,0.461c0.4,0.079,0.85,0.118,1.351,0.118V21.85
		C23.274,21.807,22.991,21.71,22.841,21.56z"/>
</g>
</svg>
